<svg xmlns="http://www.w3.org/2000/svg" viewBox="0 0 80 80" width="80" height="80">
  <path d="M64 50h-3.6c0-.4-.3-.6-.5-.8L50.2 39c-.6-.6-1.4-1-2.4-1H22.4c-1.8 0-3.3 1.4-3.3 3.2V50h-3c-4.8 0-8.7-4-8.7-9 0-2.2.8-4.3 2.3-6 .8-1 1-2.2.6-3.3-.8-2-1.2-4.3-1.2-6.5 0-9.8 7.8-17.7 17.2-17.7 7 0 13.2 4.3 16 11 .3.8 1 1.5 2 1.8 1 .3 2 0 3-.6 1.7-1.3 3.7-2 6-2 5.4 0 9.8 4.6 9.8 10.3v1c0 1.5 1 3 2.5 3.3 4 1 6.8 4.5 6.8 8.7 0 5-4 9-8.6 9zm-9.7 22.5H25.7v-28h20.8l7.8 8.2zm15.4-45.7C69 18 62 11.2 53.2 11.2c-2.2 0-4.5.5-6.5 1.4C42.4 5.6 34.7 1 26.4 1 13.4 1 2.7 12 2.7 25.2c0 2.4.4 4.7 1 7C2 34.8 1 38 1 41c0 8.5 6.8 15.4 15 15.4h3.2v19.4c0 1.8 1.5 3.2 3.3 3.2h35c1.8 0 3.3-1.4 3.3-3.2V56.4h3c8.4 0 15.2-7 15.2-15.3 0-6.2-3.8-11.8-9.3-14.2z"/>
  <path d="M38.5 50.3h-.2c-1.8 0-3.3 1.4-3.3 3.2 0 1.8 1.5 3.3 3.3 3.3h.2c1.8 0 3.2-1.5 3.2-3.3 0-1.8-1.4-3.2-3.2-3.2z"/>
</svg>
